<svg width="36" height="35" viewBox="0 0 36 35" fill="none" xmlns="http://www.w3.org/2000/svg">
<path d="M17.81 0.460007C8.28 0.460007 0.559998 8.18001 0.559998 17.71C0.559998 27.24 8.28 34.96 17.81 34.96C27.34 34.96 35.06 27.24 35.06 17.71C35.06 8.18001 27.34 0.460007 17.81 0.460007ZM28.68 27.2C28.69 27.94 28.1 28.55 27.36 28.56C27.35 28.56 27.33 28.56 27.32 28.56C24.77 28.54 22.27 27.92 20 26.75C17.58 25.55 15.37 23.96 13.46 22.04C11.55 20.13 9.95999 17.92 8.75999 15.51C7.58999 13.25 6.97 10.74 6.95 8.19001C6.94 7.45001 7.53 6.84001 8.27 6.83001C8.28 6.83001 8.29 6.83001 8.31 6.83001H12.54C12.81 6.83001 13.08 6.93001 13.28 7.12001C13.5 7.32001 13.64 7.60001 13.69 7.89001L14.5 11.69C14.54 11.95 14.54 12.21 14.48 12.46C14.43 12.68 14.32 12.89 14.16 13.05L11.14 16.1C12.2 17.88 13.47 19.52 14.93 20.99C16.34 22.39 17.94 23.58 19.68 24.52L22.55 21.57C22.74 21.36 22.98 21.2 23.24 21.1C23.49 21.01 23.76 20.99 24.02 21.05L27.61 21.83C28.23 21.96 28.67 22.5 28.67 23.13V27.2H28.68Z" fill="white"/>
</svg>
