<svg width="35" height="35" viewBox="0 0 35 35" fill="none" xmlns="http://www.w3.org/2000/svg">
<path d="M8.89 10.58V11.99L17.61 17.71L26.33 11.99V10.58L17.61 16.17L8.88 10.58H8.89Z" fill="white"/>
<path d="M17.61 0C8.08 0 0.360001 7.72 0.360001 17.25C0.360001 26.78 8.08 34.5 17.61 34.5C27.14 34.5 34.86 26.78 34.86 17.25C34.86 7.72 27.14 0 17.61 0ZM27.87 23.92C27.85 24.76 27.17 25.44 26.33 25.46H8.88C8.04 25.44 7.36 24.76 7.34 23.92V10.58C7.36 9.74 8.04 9.06 8.88 9.04H26.33C27.17 9.06 27.85 9.74 27.87 10.58V23.92Z" fill="white"/>
</svg>
