<svg width="62" height="56" viewBox="0 0 62 56" fill="none" xmlns="http://www.w3.org/2000/svg">
<path d="M30.662 50.4C30.8498 50.4 31.0376 50.3533 31.2253 50.26C31.4131 50.1667 31.554 50.0733 31.6479 49.98L54.7465 27.02C55.3099 26.46 55.7207 25.83 55.9789 25.13C56.2371 24.43 56.3662 23.73 56.3662 23.03C56.3662 22.2833 56.2371 21.5717 55.9789 20.895C55.7207 20.2183 55.3099 19.6233 54.7465 19.11L42.7746 7.21C42.2582 6.65 41.6596 6.24167 40.9789 5.985C40.2981 5.72833 39.5822 5.6 38.831 5.6C38.1268 5.6 37.4225 5.72833 36.7183 5.985C36.0141 6.24167 35.3803 6.65 34.8169 7.21L34.0423 7.98L39.2535 13.23C39.9577 13.8833 40.4742 14.63 40.8028 15.47C41.1315 16.31 41.2958 17.1967 41.2958 18.13C41.2958 20.09 40.6268 21.735 39.2887 23.065C37.9507 24.395 36.2958 25.06 34.3239 25.06C33.385 25.06 32.4812 24.8967 31.6127 24.57C30.7441 24.2433 29.9812 23.7533 29.3239 23.1L24.0423 17.92L11.7183 30.17C11.5775 30.31 11.4718 30.4617 11.4014 30.625C11.331 30.7883 11.2958 30.9633 11.2958 31.15C11.2958 31.5233 11.4366 31.8617 11.7183 32.165C12 32.4683 12.3286 32.62 12.7042 32.62C12.892 32.62 13.0798 32.5733 13.2676 32.48C13.4554 32.3867 13.5962 32.2933 13.6901 32.2L23.2676 22.68L27.2113 26.6L17.7042 36.12C17.5634 36.26 17.4577 36.4117 17.3873 36.575C17.3169 36.7383 17.2817 36.9133 17.2817 37.1C17.2817 37.4733 17.4225 37.8 17.7042 38.08C17.9859 38.36 18.3146 38.5 18.6901 38.5C18.8779 38.5 19.0657 38.4533 19.2535 38.36C19.4413 38.2667 19.5822 38.1733 19.6761 38.08L29.2535 28.63L33.1972 32.55L23.6901 42.07C23.5493 42.1633 23.4437 42.3033 23.3732 42.49C23.3028 42.6767 23.2676 42.8633 23.2676 43.05C23.2676 43.4233 23.4084 43.75 23.6901 44.03C23.9718 44.31 24.3005 44.45 24.6761 44.45C24.8638 44.45 25.0399 44.415 25.2042 44.345C25.3685 44.275 25.5211 44.17 25.662 44.03L35.2394 34.58L39.1831 38.5L29.6056 48.02C29.4648 48.16 29.3592 48.3117 29.2887 48.475C29.2183 48.6383 29.1831 48.8133 29.1831 49C29.1831 49.3733 29.3357 49.7 29.6408 49.98C29.946 50.26 30.2864 50.4 30.662 50.4ZM30.5915 56C28.8545 56 27.3169 55.4283 25.9789 54.285C24.6408 53.1417 23.8545 51.7067 23.6197 49.98C22.0235 49.7467 20.6854 49.0933 19.6056 48.02C18.5258 46.9467 17.8685 45.6167 17.6338 44.03C16.0376 43.7967 14.7113 43.1317 13.6549 42.035C12.5986 40.9383 11.9531 39.62 11.7183 38.08C9.93427 37.8467 8.47887 37.0767 7.35211 35.77C6.22535 34.4633 5.66197 32.9233 5.66197 31.15C5.66197 30.2167 5.83803 29.3183 6.19014 28.455C6.54225 27.5917 7.04695 26.8333 7.70423 26.18L24.0423 10.01L33.2676 19.18C33.3615 19.32 33.5023 19.425 33.6901 19.495C33.8779 19.565 34.0657 19.6 34.2535 19.6C34.6761 19.6 35.0282 19.4717 35.3099 19.215C35.5915 18.9583 35.7324 18.62 35.7324 18.2C35.7324 18.0133 35.6972 17.8267 35.6268 17.64C35.5563 17.4533 35.4507 17.3133 35.3099 17.22L25.2394 7.21C24.723 6.65 24.1244 6.24167 23.4437 5.985C22.7629 5.72833 22.0469 5.6 21.2958 5.6C20.5915 5.6 19.8873 5.72833 19.1831 5.985C18.4789 6.24167 17.8451 6.65 17.2817 7.21L7.35211 17.15C6.92958 17.57 6.57746 18.06 6.29577 18.62C6.01408 19.18 5.82629 19.74 5.73239 20.3C5.6385 20.86 5.6385 21.4317 5.73239 22.015C5.82629 22.5983 6.01408 23.1467 6.29577 23.66L2.21127 27.72C1.41315 26.6467 0.826291 25.4683 0.450704 24.185C0.0751174 22.9017 -0.0657277 21.6067 0.028169 20.3C0.122066 18.9933 0.450704 17.7217 1.01408 16.485C1.57746 15.2483 2.35211 14.14 3.33803 13.16L13.2676 3.29C14.3944 2.21667 15.6502 1.4 17.0352 0.84C18.4202 0.28 19.8404 0 21.2958 0C22.7512 0 24.1714 0.28 25.5563 0.84C26.9413 1.4 28.1737 2.21667 29.2535 3.29L30.0282 4.06L30.8028 3.29C31.9296 2.21667 33.1854 1.4 34.5704 0.84C35.9554 0.28 37.3756 0 38.831 0C40.2864 0 41.7066 0.28 43.0915 0.84C44.4765 1.4 45.7089 2.21667 46.7887 3.29L58.6901 15.12C59.77 16.1933 60.5915 17.43 61.1549 18.83C61.7183 20.23 62 21.6533 62 23.1C62 24.5467 61.7183 25.9583 61.1549 27.335C60.5915 28.7117 59.77 29.9367 58.6901 31.01L35.5915 53.9C34.9343 54.5533 34.1714 55.0667 33.3028 55.44C32.4343 55.8133 31.5305 56 30.5915 56Z" fill="#4317E5"/>
</svg>
