<svg width="35" height="35" viewBox="0 0 35 35" fill="none" xmlns="http://www.w3.org/2000/svg">
<path d="M11.48 17.25C11.48 14.08 14.05 11.51 17.22 11.51C20.39 11.51 22.96 14.08 22.96 17.25C22.96 20.42 20.39 22.99 17.22 22.99C14.05 22.99 11.48 20.42 11.48 17.25ZM8.38 17.25C8.38 22.13 12.34 26.09 17.22 26.09C22.1 26.09 26.06 22.13 26.06 17.25C26.06 12.37 22.1 8.41 17.22 8.41C12.34 8.41 8.38 12.37 8.38 17.25ZM24.34 8.06C24.34 9.2 25.26 10.13 26.4 10.13C27.54 10.13 28.47 9.21 28.47 8.07C28.47 6.93 27.55 6 26.41 6C25.27 6 24.34 6.92 24.34 8.07M10.27 31.27C9.18 31.26 8.09 31.06 7.07 30.68C6.32 30.4 5.65 29.96 5.09 29.39C4.52 28.83 4.08 28.16 3.81 27.41C3.43 26.39 3.23 25.3 3.22 24.21C3.14 22.39 3.12 21.85 3.12 17.25C3.12 12.65 3.14 12.11 3.22 10.29C3.23 9.2 3.43 8.12 3.81 7.09C4.09 6.34 4.53 5.67 5.1 5.11C5.66 4.54 6.33 4.1 7.08 3.82C8.1 3.44 9.19 3.24 10.28 3.23C12.1 3.15 12.64 3.13 17.23 3.13C21.82 3.13 22.37 3.15 24.19 3.23C25.28 3.24 26.36 3.44 27.39 3.82C28.14 4.1 28.81 4.54 29.37 5.11C29.94 5.67 30.38 6.34 30.66 7.09C31.04 8.11 31.24 9.2 31.25 10.29C31.33 12.11 31.35 12.65 31.35 17.25C31.35 21.85 31.33 22.39 31.25 24.21C31.24 25.3 31.04 26.39 30.66 27.41C30.08 28.91 28.89 30.1 27.39 30.68C26.37 31.06 25.28 31.26 24.19 31.27C22.37 31.35 21.83 31.37 17.23 31.37C12.63 31.37 12.09 31.35 10.28 31.27M10.12 0.140003C8.69 0.170003 7.28 0.440003 5.94 0.940003C4.79 1.37 3.75 2.05 2.89 2.93C2.01 3.79 1.33 4.83 0.9 5.98C0.4 7.31 0.13 8.73 0.1 10.16C0.02 11.99 0 12.58 0 17.26C0 21.94 0.02 22.52 0.1 24.36C0.13 25.79 0.4 27.2 0.9 28.54C1.33 29.69 2.01 30.73 2.89 31.59C3.75 32.46 4.79 33.14 5.94 33.57C7.28 34.07 8.69 34.34 10.12 34.37C11.96 34.45 12.54 34.47 17.22 34.47C21.9 34.47 22.48 34.45 24.32 34.37C25.75 34.34 27.16 34.07 28.5 33.57C30.81 32.68 32.64 30.85 33.53 28.54C34.03 27.2 34.3 25.79 34.33 24.36C34.41 22.52 34.43 21.94 34.43 17.26C34.43 12.58 34.41 12 34.33 10.16C34.3 8.73 34.03 7.32 33.52 5.99C33.09 4.84 32.41 3.8 31.53 2.94C30.67 2.06 29.63 1.39 28.48 0.950003C27.14 0.450003 25.73 0.180003 24.3 0.150003C22.46 0.0700031 21.88 0.0500031 17.2 0.0500031C12.52 0.0500031 11.94 0.0700031 10.1 0.150003" fill="white"/>
</svg>
