<svg width="35" height="35" viewBox="0 0 35 35" fill="none" xmlns="http://www.w3.org/2000/svg">
<path d="M17.41 0.0399933C7.9 0.0399933 0.200001 7.74999 0.200001 17.25C0.200001 26.75 7.91 34.46 17.41 34.46C26.91 34.46 34.62 26.75 34.62 17.25C34.62 7.74999 26.92 0.0399933 17.41 0.0399933ZM12.82 25.58H9.04V13.37H12.82V25.58ZM10.91 11.77C9.67 11.77 8.65 10.78 8.64 9.53999C8.63 8.29999 9.63 7.27999 10.87 7.26999C12.11 7.26999 13.13 8.25999 13.14 9.49999C13.14 9.49999 13.14 9.50999 13.14 9.51999C13.14 10.76 12.14 11.77 10.91 11.77ZM26.98 25.58H23.22V19.17C23.22 17.41 22.55 16.43 21.16 16.43C19.65 16.43 18.86 17.45 18.86 19.17V25.58H15.23V13.37H18.86V15.01C19.65 13.74 21.04 12.97 22.54 12.99C25.13 12.99 26.98 14.57 26.98 17.84V25.57V25.58Z" fill="white"/>
</svg>
