<svg width="412" height="84" viewBox="0 0 412 84" fill="none" xmlns="http://www.w3.org/2000/svg">
<g clip-path="url(#clip0_1_18)">
<path d="M165.46 70.89C161.84 70.89 159.2 70.05 157.55 68.37C155.9 66.69 155.07 64.01 155.07 60.34V17.03H165.7V59.47C165.7 60.78 165.96 61.69 166.49 62.19C167.01 62.69 167.78 62.94 168.77 62.94C170.13 62.94 171.37 62.76 172.47 62.39V69.71C170.47 70.5 168.14 70.89 165.46 70.89Z" fill="white"/>
<path d="M179.24 70.11V40.66H173.65L174.59 32.78H189.87V70.11H179.24ZM178.37 25.93V17.58H189.95V25.93H178.37Z" fill="white"/>
<path d="M198.93 70.11V32.78H208.77L209.16 36.32C210.68 35.17 212.61 34.15 214.95 33.29C217.29 32.42 219.74 31.99 222.31 31.99C227.24 31.99 230.84 33.15 233.1 35.45C235.36 37.76 236.49 41.33 236.49 46.16V70.1H225.86V46.71C225.86 44.19 225.35 42.41 224.32 41.36C223.3 40.31 221.39 39.79 218.61 39.79C216.98 39.79 215.34 40.16 213.69 40.89C212.04 41.63 210.66 42.54 209.56 43.65V70.11H198.93Z" fill="white"/>
<path d="M245.15 70.11V17.03H255.78V46.24L269.72 32.77H281.85L266.81 48.05L282.72 70.1H271.46L260.12 53.64L255.79 57.81V70.09H245.16L245.15 70.11Z" fill="white"/>
<path d="M303.9 70.89C297.44 70.89 292.32 69.28 288.54 66.05C284.76 62.82 282.87 57.93 282.87 51.36C282.87 45.43 284.46 40.72 287.63 37.22C290.81 33.73 295.54 31.98 301.84 31.98C307.61 31.98 312.04 33.49 315.11 36.51C318.18 39.53 319.72 43.48 319.72 48.36V55.13H292.71C293.29 58.12 294.67 60.17 296.84 61.27C299.02 62.37 302.1 62.92 306.09 62.92C308.08 62.92 310.12 62.74 312.19 62.37C314.26 62 316.03 61.53 317.51 60.95V68.51C315.78 69.3 313.76 69.89 311.45 70.28C309.14 70.67 306.62 70.87 303.89 70.87L303.9 70.89ZM292.72 48.6H310.44V46.55C310.44 44.4 309.81 42.71 308.55 41.47C307.29 40.24 305.16 39.62 302.17 39.62C298.65 39.62 296.2 40.33 294.81 41.75C293.42 43.17 292.72 45.45 292.72 48.6Z" fill="white"/>
<path d="M327.13 70.11V32.78H336.97L337.36 36.32C338.88 35.17 340.81 34.15 343.15 33.29C345.49 32.42 347.94 31.99 350.51 31.99C355.44 31.99 359.04 33.15 361.3 35.45C363.56 37.76 364.69 41.33 364.69 46.16V70.1H354.06V46.71C354.06 44.19 353.55 42.41 352.52 41.36C351.5 40.31 349.59 39.79 346.81 39.79C345.18 39.79 343.54 40.16 341.89 40.89C340.24 41.63 338.86 42.54 337.76 43.65V70.11H327.13Z" fill="white"/>
<path d="M389.1 83.97C386.32 83.97 383.47 83.79 380.56 83.42C377.65 83.05 375.19 82.53 373.2 81.85V73.9C375.3 74.58 377.77 75.12 380.6 75.51C383.43 75.9 386.08 76.1 388.55 76.1C392.17 76.1 394.8 75.9 396.43 75.51C398.06 75.12 398.87 74.42 398.87 73.42C398.87 72.58 398.52 72 397.81 71.69C397.1 71.38 395.62 71.22 393.36 71.22H383.2C376.53 71.22 373.2 68.75 373.2 63.82C373.2 62.3 373.62 60.91 374.46 59.65C375.3 58.39 376.64 57.39 378.48 56.66C374.23 54.51 372.1 50.89 372.1 45.79C372.1 40.96 373.6 37.46 376.59 35.28C379.58 33.1 384.02 32.01 389.9 32.01C391.11 32.01 392.43 32.1 393.88 32.29C395.32 32.47 396.41 32.64 397.15 32.8H411.17L410.93 39.49H405.02C406.65 41.01 407.46 43.14 407.46 45.87C407.46 49.7 406.25 52.76 403.84 55.04C401.42 57.32 397.86 58.47 393.13 58.47C392.29 58.47 391.49 58.43 390.73 58.35C389.97 58.27 389.19 58.18 388.41 58.07C386.83 58.28 385.51 58.65 384.43 59.17C383.35 59.7 382.82 60.4 382.82 61.3C382.82 62.51 383.9 63.11 386.05 63.11H396.6C400.38 63.11 403.29 63.96 405.34 65.67C407.39 67.38 408.41 69.86 408.41 73.11C408.41 76.78 406.76 79.51 403.45 81.3C400.14 83.08 395.37 83.98 389.12 83.98L389.1 83.97ZM389.97 52.47C393.12 52.47 395.31 51.93 396.55 50.86C397.78 49.78 398.4 47.96 398.4 45.39C398.4 42.82 397.78 40.95 396.55 39.8C395.32 38.65 393.12 38.07 389.97 38.07C386.82 38.07 384.82 38.63 383.51 39.76C382.2 40.89 381.54 42.77 381.54 45.39C381.54 47.81 382.16 49.59 383.39 50.74C384.62 51.9 386.82 52.47 389.97 52.47Z" fill="white"/>
<path d="M39.86 79.72C17.88 79.72 0 61.84 0 39.86C0 17.88 17.88 0 39.86 0V16.23C26.83 16.23 16.23 26.83 16.23 39.86C16.23 52.89 26.83 63.49 39.86 63.49C52.89 63.49 63.49 52.89 63.49 39.86H79.72C79.72 61.84 61.84 79.72 39.86 79.72Z" fill="white"/>
<path d="M87.03 79.72V63.49C100.06 63.49 110.66 52.89 110.66 39.86C110.66 26.83 100.06 16.23 87.03 16.23C74 16.23 63.4 26.83 63.4 39.86H47.17C47.17 17.88 65.05 0 87.03 0C109.01 0 126.89 17.88 126.89 39.86C126.89 61.84 109.01 79.72 87.03 79.72Z" fill="white"/>
</g>
<defs>
<clipPath id="clip0_1_18">
<rect width="411.15" height="83.97" fill="white"/>
</clipPath>
</defs>
</svg>
