<svg width="62" height="60" viewBox="0 0 62 60" fill="none" xmlns="http://www.w3.org/2000/svg">
<path d="M22.5174 60L21.2836 50.4C20.6153 50.15 19.9855 49.85 19.3943 49.5C18.8031 49.15 18.2247 48.775 17.6592 48.375L8.48259 52.125L0 37.875L7.94279 32.025C7.89138 31.675 7.86567 31.3375 7.86567 31.0125V28.9875C7.86567 28.6625 7.89138 28.325 7.94279 27.975L0 22.125L8.48259 7.875L17.6592 11.625C18.2247 11.225 18.8159 10.85 19.4328 10.5C20.0498 10.15 20.6667 9.85 21.2836 9.6L22.5174 0H39.4826L40.7164 9.6C41.3847 9.85 42.0145 10.15 42.6057 10.5C43.1969 10.85 43.7753 11.225 44.3408 11.625L53.5174 7.875L62 22.125L54.0572 27.975C54.1086 28.325 54.1343 28.6625 54.1343 28.9875V31.0125C54.1343 31.3375 54.0829 31.675 53.9801 32.025L61.9229 37.875L53.4403 52.125L44.3408 48.375C43.7753 48.775 43.1841 49.15 42.5672 49.5C41.9502 49.85 41.3333 50.15 40.7164 50.4L39.4826 60H22.5174ZM31.1542 40.5C34.136 40.5 36.6808 39.475 38.7886 37.425C40.8963 35.375 41.9502 32.9 41.9502 30C41.9502 27.1 40.8963 24.625 38.7886 22.575C36.6808 20.525 34.136 19.5 31.1542 19.5C28.1211 19.5 25.5634 20.525 23.4813 22.575C21.3993 24.625 20.3582 27.1 20.3582 30C20.3582 32.9 21.3993 35.375 23.4813 37.425C25.5634 39.475 28.1211 40.5 31.1542 40.5ZM31.1542 34.5C29.869 34.5 28.7765 34.0625 27.8769 33.1875C26.9772 32.3125 26.5274 31.25 26.5274 30C26.5274 28.75 26.9772 27.6875 27.8769 26.8125C28.7765 25.9375 29.869 25.5 31.1542 25.5C32.4395 25.5 33.5319 25.9375 34.4316 26.8125C35.3313 27.6875 35.7811 28.75 35.7811 30C35.7811 31.25 35.3313 32.3125 34.4316 33.1875C33.5319 34.0625 32.4395 34.5 31.1542 34.5ZM27.9154 54H34.0075L35.0871 46.05C36.6808 45.65 38.1588 45.0625 39.5211 44.2875C40.8835 43.5125 42.1302 42.575 43.2612 41.475L50.8955 44.55L53.903 39.45L47.2711 34.575C47.5282 33.875 47.7081 33.1375 47.8109 32.3625C47.9138 31.5875 47.9652 30.8 47.9652 30C47.9652 29.2 47.9138 28.4125 47.8109 27.6375C47.7081 26.8625 47.5282 26.125 47.2711 25.425L53.903 20.55L50.8955 15.45L43.2612 18.6C42.1302 17.45 40.8835 16.4875 39.5211 15.7125C38.1588 14.9375 36.6808 14.35 35.0871 13.95L34.0846 6H27.9925L26.9129 13.95C25.3192 14.35 23.8412 14.9375 22.4789 15.7125C21.1165 16.4875 19.8698 17.425 18.7388 18.525L11.1045 15.45L8.09701 20.55L14.7289 25.35C14.4718 26.1 14.2919 26.85 14.1891 27.6C14.0862 28.35 14.0348 29.15 14.0348 30C14.0348 30.8 14.0862 31.575 14.1891 32.325C14.2919 33.075 14.4718 33.825 14.7289 34.575L8.09701 39.45L11.1045 44.55L18.7388 41.4C19.8698 42.55 21.1165 43.5125 22.4789 44.2875C23.8412 45.0625 25.3192 45.65 26.9129 46.05L27.9154 54Z" fill="#4317E5"/>
</svg>
