<svg width="62" height="39" viewBox="0 0 62 39" fill="none" xmlns="http://www.w3.org/2000/svg">
<path d="M19.4761 38.1538C8.73639 38.1538 0 29.5965 0 19.0769C0 8.55734 8.73639 0 19.4761 0V7.76765C13.1095 7.76765 7.93018 12.8408 7.93018 19.0769C7.93018 25.3131 13.1095 30.3862 19.4761 30.3862C25.8427 30.3862 31.022 25.3131 31.022 19.0769H38.9522C38.9522 29.5965 30.2158 38.1538 19.4761 38.1538Z" fill="#4317E5"/>
<path d="M42.5239 38.1538V30.3862C48.8906 30.3862 54.0698 25.3131 54.0698 19.0769C54.0698 12.8408 48.8906 7.76765 42.5239 7.76765C36.1573 7.76765 30.978 12.8408 30.978 19.0769H23.0479C23.0479 8.55734 31.7842 0 42.5239 0C53.2636 0 62 8.55734 62 19.0769C62 29.5965 53.2636 38.1538 42.5239 38.1538Z" fill="#4317E5"/>
</svg>
